# xmcd
#
# Track frame offsets: 
#        150
#        14030
#        28687
#        43687
#        56607
#        70945
#        85317
#        101450
#        117345
#        130262
#        146312
#        159615
#        175117
#        189095
#        204267
#        219687
#        233292
#        248300
#        262085
#        275247
#        288607
#        303992
#
# Disc length: 4244 seconds
#
# Revision: 2
# Processed by: cddbd v1.5.2PL0 Copyright (c) Steve Scherf et al.
# Submitted via: ExactAudioCopy v1.0b3
#
DISCID=3a109216
DTITLE=Various Artist - 青春歌年鑑 ’50年代  総集編 (Disc1)
DYEAR=1950
DGENRE=歌謡曲
TTITLE0=笠置シヅ子 - 東京ブギウギ
TTITLE1=並木路子・霧島昇 - リンゴの唄
TTITLE2=藤山一郎・奈良光枝 - 青い山脈
TTITLE3=高峰秀子 - 銀座カンカン娘
TTITLE4=灰田勝彦 - 東京の屋根の下
TTITLE5=市丸 - 三味線ブギウギ
TTITLE6=藤山一郎 - 長崎の鐘
TTITLE7=二葉あき子 - 水色のワルツ
TTITLE8=小畑実 - 星影の小径
TTITLE9=津村謙 - 上海帰りのリル
TTITLE10=山口淑子 - 夜来香 (イエライシャン)
TTITLE11=渡辺はま子 - 桑港(シスコ)のチャイナ街(タウン)
TTITLE12=美空ひばり - 東京キッド
TTITLE13=伊藤久男 - イヨマンテの夜
TTITLE14=織井茂子 - 君の名は
TTITLE15=三木鶏郎・丹下キヨ子・森繁久彌 - 僕は特急の機関士で～東海道の巻～
TTITLE16=笠置シヅ子 - 買物ブギー
TTITLE17=暁テル子 - 東京シューシャイン・ボーイ
TTITLE18=池真理子 - ボタンとリボン
TTITLE19=雪村いづみ - 青いカナリヤ
TTITLE20=江利チエミ - テネシー・ワルツ
TTITLE21=美空ひばり - リンゴ追分
EXTD=YEAR: 1950
EXTT0=
EXTT1=
EXTT2=
EXTT3=
EXTT4=
EXTT5=
EXTT6=
EXTT7=
EXTT8=
EXTT9=
EXTT10=
EXTT11=
EXTT12=
EXTT13=
EXTT14=
EXTT15=
EXTT16=
EXTT17=
EXTT18=
EXTT19=
EXTT20=
EXTT21=
PLAYORDER=
